# xmcd
#
# Track frame offsets:
#	150
#	15373
#	30448
#	46498
#	61873
#	79648
#	96898
#	113398
#	134871
#	152313
#	166263
#	188088
#	202863
#	219138
#	236538
#	254163
#	274113
#	289493
#
# Disc length: 4055 seconds
#
# Revision: 1
# Processed by: cddbd v1.5.2PL0 Copyright (c) Steve Scherf et al.
# Submitted via: audiograbber 1.83.01
#
DISCID=eb0fd512
DTITLE=Various Artist - Karaoke Country 2004
DYEAR=2004
DGENRE=Karaoke
TTITLE0=No Shoes, No Shirt, No Problem
TTITLE1=Here for the Party
TTITLE2=Redneck Woman
TTITLE3=Girls Lie Too
TTITLE4=Whiskey Lullaby
TTITLE5=Suds in the Bucket
TTITLE6=Me and Emily
TTITLE7=Forever and for Always
TTITLE8=I Love this Bar
TTITLE9=Too Much of a Good Thing
TTITLE10=Live Like You Were Dying
TTITLE11=Save a Horse, Ride a Cowboy
TTITLE12=When the Sun Goes Down
TTITLE13=I Go Back
TTITLE14=Whiskey Girl
TTITLE15=Letters from Home
TTITLE16=Beer for My Horses
TTITLE17=It's 5 O'clock Somewhere
EXTD=
EXTT0=
EXTT1=
EXTT2=
EXTT3=
EXTT4=
EXTT5=
EXTT6=
EXTT7=
EXTT8=
EXTT9=
EXTT10=
EXTT11=
EXTT12=
EXTT13=
EXTT14=
EXTT15=
EXTT16=
EXTT17=
PLAYORDER=
